<svg width="162" height="120" viewBox="0 0 162 120" fill="none" xmlns="http://www.w3.org/2000/svg">
<path d="M98.9586 9.24241C86.6983 6.09998 73.7169 7.61223 62.4948 13.4902C51.2727 19.3682 42.5966 29.1998 38.1243 41.1066L40.5308 42.0215C44.7796 30.7101 53.0218 21.37 63.6829 15.7859C74.3439 10.2019 86.6762 8.76523 98.3235 11.7505L98.9586 9.24241Z" fill="#80AF81"/>
<path d="M70.8199 2.40482C84.9759 -1.28805 99.99 0.426608 112.963 7.21773C125.936 14.0088 135.948 25.3948 141.066 39.1771L138.296 40.2183C133.434 27.125 123.923 16.3084 111.598 9.85684C99.2737 3.40528 85.0103 1.77635 71.5621 5.28458L70.8199 2.40482Z" fill="#80AF81"/>
<path d="M100.512 117.594C86.3549 121.288 71.3392 119.574 58.3648 112.782C45.3904 105.99 35.3778 94.6021 30.2605 80.8178L33.0307 79.7769C37.8921 92.872 47.4041 103.69 59.7298 110.143C72.0554 116.595 86.3204 118.224 99.7699 114.715L100.512 117.594Z" fill="#80AF81"/>
<path d="M73.5555 109.568C85.816 112.71 98.7973 111.197 110.019 105.319C121.241 99.44 129.917 89.6079 134.388 77.7009L131.982 76.7861C127.733 88.0978 119.492 97.4382 108.831 103.023C98.1702 108.608 85.838 110.045 74.1905 107.06L73.5555 109.568Z" fill="#80AF81"/>
<path d="M93.0314 104.71C87.1176 105.605 81.0865 105.32 75.2824 103.87C69.4784 102.42 64.0149 99.8345 59.2041 96.2605C54.3933 92.6865 50.3293 88.1943 47.2442 83.0402C44.159 77.8861 42.1132 72.1711 41.2234 66.2216L43.475 65.8807C44.3203 71.5328 46.2639 76.962 49.1947 81.8584C52.1256 86.7548 55.9864 91.0225 60.5567 94.4177C65.127 97.813 70.3172 100.269 75.8311 101.647C81.345 103.024 87.0745 103.295 92.6926 102.445L93.0314 104.71Z" fill="#80AF81"/>
<path d="M77.045 14.6079C82.9344 13.5631 88.9708 13.6956 94.8093 14.9978C100.648 16.3 106.174 18.7464 111.073 22.1974C115.972 25.6483 120.147 30.0362 123.36 35.1104C126.573 40.1847 128.762 45.846 129.8 51.7711L127.558 52.1689C126.571 46.54 124.492 41.1618 121.44 36.3413C118.387 31.5207 114.421 27.3522 109.767 24.0738C105.113 20.7955 99.8631 18.4714 94.3165 17.2343C88.7699 15.9972 83.0354 15.8713 77.4404 16.8638L77.045 14.6079Z" fill="#80AF81"/>
<path fill-rule="evenodd" clip-rule="evenodd" d="M118.585 63.1098C118.716 61.893 118.784 60.6569 118.784 59.405C118.784 58.6978 118.762 57.9957 118.72 57.2993H129.503C130.735 57.2993 131.513 56.5168 131.837 54.9518L134.216 43.1913L140.616 45.2366L138.49 54.9518C138.413 55.3082 138.375 55.6103 138.375 55.8582C138.375 56.8189 138.898 57.2993 139.946 57.2993C141.178 57.2993 141.955 56.5168 142.279 54.9518L144.658 43.1913L151.058 45.2366L148.932 54.9518C148.871 55.2307 148.84 55.5096 148.84 55.7885C148.84 56.7957 149.356 57.2993 150.388 57.2993C151.635 57.2993 152.413 56.5168 152.721 54.9518L155.078 43.1913L161.5 45.2831L158.866 57.4155C158.435 59.3833 158.065 60.6074 157.757 61.0877C156.895 62.4358 155.378 63.1098 153.206 63.1098H149.302C148.362 63.1098 147.508 62.6372 146.738 61.692C146.26 62.6372 145.567 63.1098 144.658 63.1098H138.86C137.828 63.1098 136.973 62.6372 136.295 61.692C135.756 62.6372 135.063 63.1098 134.216 63.1098H118.585ZM51.5609 63.1098H68.0643L71.1296 69.3265C71.5606 70.2007 72.3984 70.7993 73.3608 70.9206C74.3232 71.0419 75.282 70.6698 75.914 69.9296L79.8503 65.3202L84.3302 65.2907C84.3683 65.2905 84.4063 65.2895 84.4441 65.2878L86.432 89.11C86.5559 90.5941 87.7737 91.7445 89.2538 91.7755C90.7339 91.8065 91.9982 90.708 92.1833 89.2304L95.2023 65.1276C95.4362 65.1865 95.6784 65.2162 95.9235 65.2146L97.7326 65.2027L98.0283 66.0394C98.4406 67.2059 99.5415 67.9822 100.772 67.9741L101.738 67.9678C102.334 67.9639 102.914 67.7748 103.4 67.4264L109.362 63.1448L113.277 63.1191L113.276 63.1098H118.585C116.751 80.0977 102.447 93.3199 85.0729 93.3199C67.6993 93.3199 53.3954 80.0977 51.5609 63.1098ZM51.5609 63.1098H47.0512C44.1403 63.1098 42.6848 61.7385 42.6848 58.9959C42.6848 58.1902 42.808 57.3845 43.0545 56.5788L47.3053 35.8003H54.0743L50.2393 55.254C50.1777 55.5638 50.1469 55.7885 50.1469 55.928C50.1469 56.7994 50.5742 57.2409 51.4288 57.2525C51.3845 57.9643 51.362 58.682 51.362 59.405C51.362 60.6569 51.4295 61.893 51.5609 63.1098ZM51.4288 57.2525C51.4404 57.2527 51.452 57.2528 51.4637 57.2528H55.2294V57.2993H65.9266L65.926 57.2173L69.7904 57.1919C70.896 57.1847 71.9089 57.8121 72.4001 58.8085L74.3714 62.8064L76.321 60.5233C76.8661 59.885 77.6593 59.5153 78.4958 59.5098L81.8605 59.4877L83.3187 50.7231C83.5594 49.2764 84.8329 48.2362 86.2897 48.2964C87.7465 48.3566 88.931 49.4984 89.053 50.9601L89.8903 60.9938L90.1188 59.1691C90.255 58.0818 90.9869 57.1638 92.0122 56.794C93.0376 56.4242 94.1826 56.6654 94.9743 57.418L97.0468 59.388L99.7501 59.3702C100.875 59.3628 101.892 60.0112 102.373 61.014L106.747 57.8732C107.232 57.5248 107.812 57.3358 108.408 57.3319L113.193 57.3004L118.72 57.2993C117.639 39.5494 102.988 25.49 85.0729 25.49C67.1736 25.49 52.5325 39.5247 51.4288 57.2525ZM40.3284 45.2831L37.9257 57.4155C37.6177 58.9804 36.9631 60.2898 35.962 61.3434C34.8531 62.521 33.5517 63.1098 32.0578 63.1098H4.82013C1.94004 63.1098 0.5 61.8315 0.5 59.2748C0.5 58.5001 0.607811 57.6014 0.823432 56.5788L3.20297 45.2831L10.3416 43.1913L8.05446 55.3237C7.99285 55.6491 7.96205 55.9047 7.96205 56.0907C7.96205 56.8964 8.43949 57.2993 9.39439 57.2993H29.2162C30.0479 57.2993 30.61 57.1366 30.9026 56.8112C31.1491 56.5478 31.3647 55.9435 31.5495 54.9983L33.929 43.1913L40.3284 45.2831ZM19.3515 66.201L18.3119 71.477H12.3515L13.3911 66.201H19.3515ZM153.969 29.06L152.929 34.336H146.992L148.031 29.06H153.969ZM156.949 35.9165L155.955 41.0995H150.041L151.081 35.9165H156.949ZM149.163 35.9165L148.193 41.0995H142.256L143.295 35.9165H149.163Z" fill="#80AF81"/>
</svg>
